<svg width="78" height="130" viewBox="0 0 78 130" fill="none" xmlns="http://www.w3.org/2000/svg">
<rect width="78" height="130" fill="#282828"/>
<g id="Portal V2 2026">
<path d="M-4172 -1036C-4172 -1037.1 -4171.1 -1038 -4170 -1038H13357C13358.1 -1038 13359 -1037.1 13359 -1036V11968C13359 11969.1 13358.1 11970 13357 11970H-4170C-4171.1 11970 -4172 11969.1 -4172 11968V-1036Z" fill="#444444"/>
<path d="M-4170 -1038V-1037H13357V-1038V-1039H-4170V-1038ZM13359 -1036H13358V11968H13359H13360V-1036H13359ZM13357 11970V11969H-4170V11970V11971H13357V11970ZM-4172 11968H-4171V-1036H-4172H-4173V11968H-4172ZM-4170 11970V11969C-4170.55 11969 -4171 11968.6 -4171 11968H-4172H-4173C-4173 11969.7 -4171.66 11971 -4170 11971V11970ZM13359 11968H13358C13358 11968.6 13357.6 11969 13357 11969V11970V11971C13358.7 11971 13360 11969.7 13360 11968H13359ZM13357 -1038V-1037C13357.6 -1037 13358 -1036.55 13358 -1036H13359H13360C13360 -1037.66 13358.7 -1039 13357 -1039V-1038ZM-4170 -1038V-1039C-4171.66 -1039 -4173 -1037.66 -4173 -1036H-4172H-4171C-4171 -1036.55 -4170.55 -1037 -4170 -1037V-1038Z" fill="white" fill-opacity="0.1"/>
<g id="Section 2">
<path d="M-1470 -663C-1470 -664.105 -1469.1 -665 -1468 -665H5229C5230.1 -665 5231 -664.105 5231 -663V1407C5231 1408.1 5230.1 1409 5229 1409H-1468C-1469.1 1409 -1470 1408.1 -1470 1407V-663Z" fill="#444444"/>
<path d="M-1468 -665V-664H5229V-665V-666H-1468V-665ZM5231 -663H5230V1407H5231H5232V-663H5231ZM5229 1409V1408H-1468V1409V1410H5229V1409ZM-1470 1407H-1469V-663H-1470H-1471V1407H-1470ZM-1468 1409V1408C-1468.55 1408 -1469 1407.55 -1469 1407H-1470H-1471C-1471 1408.66 -1469.66 1410 -1468 1410V1409ZM5231 1407H5230C5230 1407.55 5229.55 1408 5229 1408V1409V1410C5230.66 1410 5232 1408.66 5232 1407H5231ZM5229 -665V-664C5229.55 -664 5230 -663.552 5230 -663H5231H5232C5232 -664.657 5230.66 -666 5229 -666V-665ZM-1468 -665V-666C-1469.66 -666 -1471 -664.657 -1471 -663H-1470H-1469C-1469 -663.552 -1468.55 -664 -1468 -664V-665Z" fill="white" fill-opacity="0.1"/>
<g id="Home">
<rect width="1440" height="1686" transform="translate(-1145 -471)" fill="black"/>
<g id="Main Content">
<g id="section">
<g id="content card">
<rect x="-265" y="-16" width="367" height="162" rx="24" fill="#DEFFCD"/>
<g id="Content Block">
<g id="graphic">
<rect id="Secondary Graphic" x="0.295455" y="79.4771" width="77.4091" height="50.2273" rx="4.43182" stroke="#4A948D" stroke-width="0.590909" stroke-dasharray="2.36 2.36"/>
<rect id="Secondary Graphic_2" x="27.4771" y="77.7045" width="77.4091" height="50.2273" rx="4.43182" transform="rotate(-90 27.4771 77.7045)" stroke="#4A948D" stroke-width="0.590909" stroke-dasharray="2.36 2.36"/>
<circle id="Ellipse 9" cx="66.1821" cy="118.182" r="9.45455" fill="#023939"/>
<circle id="Ellipse 10" cx="66.1821" cy="59.0908" r="8.86364" stroke="#4A948D" stroke-width="1.18182"/>
<path id="Arrow 1" d="M66.3906 71.8818C66.2752 71.7664 66.0881 71.7664 65.9727 71.8818L64.0925 73.7621C63.9771 73.8775 63.9771 74.0645 64.0925 74.1799C64.2078 74.2953 64.3949 74.2953 64.5103 74.1799L66.1816 72.5086L67.853 74.1799C67.9684 74.2953 68.1554 74.2953 68.2708 74.1799C68.3862 74.0645 68.3862 73.8775 68.2708 73.7621L66.3906 71.8818ZM66.1816 105.182L66.4771 105.182L66.4771 72.0907L66.1816 72.0907L65.8862 72.0907L65.8862 105.182L66.1816 105.182Z" fill="#4A948D"/>
<path id="Vector 14" d="M61.4541 59.0908H70.9086" stroke="#4A948D" stroke-width="1.18182"/>
<path id="Vector 15" d="M66.1816 63.8184L66.1816 54.3638" stroke="#4A948D" stroke-width="1.18182"/>
<path id="Vector 16" d="M61.4541 118.182H70.9086" stroke="white" stroke-width="1.18182"/>
<path id="Vector 17" d="M66.1816 122.909L66.1816 113.455" stroke="white" stroke-width="1.18182"/>
</g>
</g>
</g>
</g>
</g>
</g>
</g>
</g>
</svg>
