<svg width="84" height="120" viewBox="0 0 84 120" fill="none" xmlns="http://www.w3.org/2000/svg">
<rect width="84" height="120" fill="#282828"/>
<g id="Portal V2 2026">
<path d="M-3784 -1041C-3784 -1042.1 -3783.1 -1043 -3782 -1043H13745C13746.1 -1043 13747 -1042.1 13747 -1041V11963C13747 11964.1 13746.1 11965 13745 11965H-3782C-3783.1 11965 -3784 11964.1 -3784 11963V-1041Z" fill="#444444"/>
<path d="M-3782 -1043V-1042H13745V-1043V-1044H-3782V-1043ZM13747 -1041H13746V11963H13747H13748V-1041H13747ZM13745 11965V11964H-3782V11965V11966H13745V11965ZM-3784 11963H-3783V-1041H-3784H-3785V11963H-3784ZM-3782 11965V11964C-3782.55 11964 -3783 11963.6 -3783 11963H-3784H-3785C-3785 11964.7 -3783.66 11966 -3782 11966V11965ZM13747 11963H13746C13746 11963.6 13745.6 11964 13745 11964V11965V11966C13746.7 11966 13748 11964.7 13748 11963H13747ZM13745 -1043V-1042C13745.6 -1042 13746 -1041.55 13746 -1041H13747H13748C13748 -1042.66 13746.7 -1044 13745 -1044V-1043ZM-3782 -1043V-1044C-3783.66 -1044 -3785 -1042.66 -3785 -1041H-3784H-3783C-3783 -1041.55 -3782.55 -1042 -3782 -1042V-1043Z" fill="white" fill-opacity="0.1"/>
<g id="Section 2">
<path d="M-1082 -668C-1082 -669.105 -1081.1 -670 -1080 -670H5617C5618.1 -670 5619 -669.105 5619 -668V1402C5619 1403.1 5618.1 1404 5617 1404H-1080C-1081.1 1404 -1082 1403.1 -1082 1402V-668Z" fill="#444444"/>
<path d="M-1080 -670V-669H5617V-670V-671H-1080V-670ZM5619 -668H5618V1402H5619H5620V-668H5619ZM5617 1404V1403H-1080V1404V1405H5617V1404ZM-1082 1402H-1081V-668H-1082H-1083V1402H-1082ZM-1080 1404V1403C-1080.55 1403 -1081 1402.55 -1081 1402H-1082H-1083C-1083 1403.66 -1081.66 1405 -1080 1405V1404ZM5619 1402H5618C5618 1402.55 5617.55 1403 5617 1403V1404V1405C5618.66 1405 5620 1403.66 5620 1402H5619ZM5617 -670V-669C5617.55 -669 5618 -668.552 5618 -668H5619H5620C5620 -669.657 5618.66 -671 5617 -671V-670ZM-1080 -670V-671C-1081.66 -671 -1083 -669.657 -1083 -668H-1082H-1081C-1081 -668.552 -1080.55 -669 -1080 -669V-670Z" fill="white" fill-opacity="0.1"/>
<g id="Home">
<rect width="1440" height="1686" transform="translate(-757 -476)" fill="black"/>
<g id="Main Content">
<g id="section">
<g id="content card">
<rect x="-261" y="-21" width="368" height="162" rx="24" fill="#99FF9A"/>
<g id="Content Block">
<g id="graphic">
<circle id="Ellipse 7" cx="34" cy="86" r="33.25" stroke="#28B482" stroke-width="1.5"/>
<rect id="Secondary Graphic" x="34.75" y="17.75" width="47.5" height="47.5" stroke="#007272" stroke-width="1.5"/>
<circle id="Ellipse 8" cx="74.5" cy="8.5" r="8.5" fill="#28B482"/>
<path id="Vector 13" opacity="0.2" d="M15.0847 17C15.0847 17 12.5219 42.1176 35.5874 66.5563C58.653 90.995 83 88.9584 83 88.9584" stroke="#007272"/>
<rect id="Secondary Graphic_2" x="37.25" y="44.75" width="41.5" height="17.5" rx="3.75" stroke="#007272" stroke-width="0.5" stroke-dasharray="2 2"/>
</g>
</g>
</g>
</g>
</g>
</g>
</g>
</g>
</svg>
