<svg width="114" height="22" viewBox="0 0 114 22" fill="none" xmlns="http://www.w3.org/2000/svg">
  <path d="M14.8886 14.2786C14.8886 14.493 14.8266 14.9526 14.7956 15.1058H3.50503C3.72216 17.9248 5.80036 19.2423 7.81653 19.2423C10.0498 19.2423 11.1975 18.2925 12.004 17.1281L14.3923 18.7521C13.2757 20.7131 11.1044 22 7.81653 22C3.1018 22 0 18.6908 0 14.0641C0 9.3454 3.07078 6.15878 7.53737 6.15878C12.035 6.15878 14.8886 9.3454 14.8886 14.2786ZM7.53737 8.91644C5.36611 8.91644 3.87725 10.2953 3.53605 12.7465H11.4456C11.1044 10.3259 9.77067 8.91644 7.53737 8.91644Z" fill="currentColor"/>
  <path d="M27.5956 6.4039H31.2247V21.7242H27.9988V19.4875C27.1303 21.0501 25.3313 22 23.0359 22C19.7791 22 17.7319 19.8245 17.7319 16.3621V6.4039H21.361V16.0863C21.361 18.0167 22.4156 19.1198 24.2146 19.1198C26.3549 19.1198 27.5956 17.649 27.5956 15.2284V6.4039Z" fill="currentColor"/>
  <path d="M41.9206 2.88022C40.4937 2.88022 39.7493 3.67688 39.7493 5.11699V6.4039H43.3784V9.28412H39.7493V21.7242H36.1202V9.28412H33.8559V6.4039H36.1202V4.87187C36.1202 1.71588 37.8882 0 41.1141 0C41.9516 0 43.0682 0.153203 43.5645 0.306406V3.12535C43.1613 2.97215 42.4789 2.88022 41.9206 2.88022Z" fill="currentColor"/>
  <path d="M60.1737 14.2786C60.1737 14.493 60.1117 14.9526 60.0806 15.1058H48.7901C49.0072 17.9248 51.0854 19.2423 53.1016 19.2423C55.3349 19.2423 56.4825 18.2925 57.289 17.1281L59.6774 18.7521C58.5608 20.7131 56.3895 22 53.1016 22C48.3869 22 45.2851 18.6908 45.2851 14.0641C45.2851 9.3454 48.3558 6.15878 52.8224 6.15878C57.32 6.15878 60.1737 9.3454 60.1737 14.2786ZM52.8224 8.91644C50.6512 8.91644 49.1623 10.2953 48.8211 12.7465H56.7307C56.3895 10.3259 55.0557 8.91644 52.8224 8.91644Z" fill="currentColor"/>
  <path d="M80.5731 6.15878C84.1712 6.15878 86.1253 8.2117 86.1253 11.766V21.7242H82.5272V12.0418C82.5272 10.0501 81.5347 9.00836 79.6426 9.00836C77.6574 9.00836 76.4787 10.2953 76.4787 12.532V21.7242H72.8806V12.0418C72.8806 10.0501 71.8881 9.00836 69.996 9.00836C68.0108 9.00836 66.8321 10.4178 66.8321 12.6546V21.7242H63.2341V6.4039H66.4289V8.57939C67.2974 7.13928 68.9103 6.15878 70.9265 6.15878C73.439 6.15878 75.0519 7.16992 75.7653 9.00836C76.5718 7.29248 78.3398 6.15878 80.5731 6.15878Z" fill="currentColor"/>
  <path d="M91.3263 4.87187C90.0546 4.87187 89 3.83008 89 2.57382C89 1.31755 90.0546 0.245126 91.3263 0.245126C92.5981 0.245126 93.6837 1.31755 93.6837 2.57382C93.6837 3.83008 92.5981 4.87187 91.3263 4.87187Z" fill="currentColor"/>
  <path d="M112.883 18.3231C112.883 19.0891 113.225 19.4262 114 19.4262L113.969 21.7242C113.628 21.9081 112.976 22 112.325 22C110.805 22 109.782 21.1727 109.564 19.7326C108.634 21.1114 106.897 22 104.788 22C101.624 22 99.5766 20.2228 99.5766 17.5571C99.5766 14.8607 101.376 13.2981 105.191 12.7465L109.254 12.1337V11.7354C109.254 9.98886 108.076 8.91644 106.121 8.91644C104.571 8.91644 103.423 9.65181 102.927 10.9387L100.166 9.55989C101.097 7.32312 103.206 6.12814 106.308 6.12814C110.526 6.12814 112.883 8.2117 112.883 11.9192V18.3231ZM105.377 19.3955C107.796 19.3955 109.254 17.7409 109.254 15.0446V14.493L106.059 14.9833C103.95 15.2897 103.02 16.0557 103.02 17.4345C103.02 18.5682 104.012 19.3955 105.377 19.3955Z" fill="currentColor"/>
  <path d="M89.505 6.14183L93.01 6.14183V14.0641C91.0742 14.0641 89.505 12.4041 89.505 10.3565V6.14183Z" fill="currentColor"/>
  <path d="M93 21.9863V14.0641C94.9358 14.0641 96.505 15.724 96.505 17.7717V21.9863H93Z" fill="currentColor"/>
</svg>
